<?xml version="1.0" standalone="no"?>
<!DOCTYPE svg PUBLIC "-//W3C//DTD SVG 20010904//EN"
 "http://www.w3.org/TR/2001/REC-SVG-20010904/DTD/svg10.dtd">
<svg version="1.0" xmlns="http://www.w3.org/2000/svg"
 width="47.000000pt" height="47.000000pt" viewBox="0 0 47.000000 47.000000"
 preserveAspectRatio="xMidYMid meet">

<g transform="translate(0.000000,47.000000) scale(0.100000,-0.100000)"
fill="#000000" stroke="none">
<path d="M210 446 c0 -33 -40 -44 -59 -16 -10 15 -17 17 -32 10 -14 -8 -16
-15 -9 -34 12 -33 -13 -58 -46 -46 -19 7 -26 5 -34 -9 -7 -15 -5 -22 10 -32
28 -19 17 -59 -16 -59 -19 0 -24 -5 -24 -25 0 -20 5 -25 24 -25 33 0 44 -40
16 -59 -15 -10 -17 -17 -10 -32 8 -14 15 -16 34 -9 33 12 58 -13 46 -46 -7
-19 -5 -26 9 -34 15 -7 22 -5 32 10 19 28 59 17 59 -16 0 -19 5 -24 25 -24 20
0 25 5 25 24 0 33 40 44 59 16 10 -15 17 -17 32 -10 14 8 16 15 9 34 -12 33
13 58 46 46 19 -7 26 -5 34 9 7 15 5 22 -10 32 -28 19 -17 59 16 59 19 0 24 5
24 25 0 20 -5 25 -24 25 -33 0 -44 40 -16 59 15 10 17 17 10 32 -8 14 -15 16
-34 9 -33 -12 -58 13 -46 46 7 19 5 26 -9 34 -15 7 -22 5 -32 -10 -19 -28 -59
-17 -59 16 0 19 -5 24 -25 24 -20 0 -25 -5 -25 -24z m91 -91 c90 -47 90 -193
0 -240 -91 -47 -201 17 -201 118 0 104 108 170 201 122z"/>
<path d="M168 344 c-78 -42 -76 -178 2 -219 90 -46 190 11 190 110 0 99 -104
158 -192 109z m132 -23 c14 -10 31 -34 39 -54 12 -32 11 -40 -5 -74 -25 -51
-81 -79 -126 -64 -43 15 -65 37 -78 77 -16 46 11 102 60 127 39 19 71 16 110
-12z"/>
</g>
</svg>
